<svg width="70" height="20" viewBox="0 0 70 20" fill="none" xmlns="http://www.w3.org/2000/svg">
<path d="M0 19.6V0.4H3.2016V16.5867H11.6506V19.6H0Z" fill="#101010"/>
<path d="M21.4726 20C19.5596 20 17.9211 19.5822 16.5573 18.7467C15.1934 17.9022 14.1439 16.7289 13.4088 15.2267C12.6826 13.7244 12.3194 11.9822 12.3194 10C12.3194 8.01778 12.6826 6.27556 13.4088 4.77333C14.1439 3.27111 15.1934 2.10222 16.5573 1.26667C17.9211 0.422222 19.5596 0 21.4726 0C23.3856 0 25.024 0.422222 26.3879 1.26667C27.7607 2.10222 28.8101 3.27111 29.5364 4.77333C30.2715 6.27556 30.639 8.01778 30.639 10C30.639 11.9822 30.2715 13.7244 29.5364 15.2267C28.8101 16.7289 27.7607 17.9022 26.3879 18.7467C25.024 19.5822 23.3856 20 21.4726 20ZM21.4726 16.9733C22.7568 16.9822 23.824 16.6978 24.6742 16.12C25.5333 15.5422 26.1754 14.7289 26.6005 13.68C27.0344 12.6311 27.2514 11.4044 27.2514 10C27.2514 8.59556 27.0344 7.37778 26.6005 6.34667C26.1754 5.30667 25.5333 4.49778 24.6742 3.92C23.824 3.34222 22.7568 3.04444 21.4726 3.02667C20.1884 3.01778 19.1212 3.30222 18.271 3.88C17.4208 4.45778 16.7787 5.27111 16.3447 6.32C15.9196 7.36889 15.707 8.59556 15.707 10C15.707 11.4044 15.9196 12.6267 16.3447 13.6667C16.7698 14.6978 17.4075 15.5022 18.2577 16.08C19.1168 16.6578 20.1884 16.9556 21.4726 16.9733Z" fill="#101010"/>
<path d="M41.1744 20C39.9345 20 38.7698 19.7822 37.6805 19.3467C36.6 18.9022 35.6479 18.2533 34.8243 17.4C34.0095 16.5467 33.3718 15.5022 32.9113 14.2667C32.4508 13.0222 32.2205 11.6 32.2205 10C32.2205 7.90222 32.6102 6.11111 33.3895 4.62667C34.1689 3.13333 35.2361 1.99111 36.5912 1.2C37.9462 0.4 39.4739 0 41.1744 0C43.5302 0 45.3945 0.551111 46.7672 1.65333C48.1488 2.74667 49.0832 4.28444 49.5703 6.26667L46.3022 6.78667C45.9391 5.64889 45.3457 4.74222 44.5221 4.06667C43.6984 3.38222 42.649 3.04 41.3736 3.04C40.0894 3.02222 39.0222 3.30222 38.172 3.88C37.3218 4.45778 36.6797 5.27111 36.2458 6.32C35.8206 7.36889 35.6081 8.59556 35.6081 10C35.6081 11.4044 35.8206 12.6267 36.2458 13.6667C36.6709 14.6978 37.3085 15.5022 38.1587 16.08C39.0178 16.6578 40.0894 16.9556 41.3736 16.9733C42.339 16.9822 43.1848 16.8089 43.911 16.4533C44.6372 16.0889 45.2306 15.5422 45.6911 14.8133C46.1517 14.0756 46.4617 13.1556 46.6211 12.0533H43.2468V9.53333H50.0219C50.0397 9.67556 50.0529 9.88445 50.0618 10.16C50.0707 10.4356 50.0751 10.6 50.0751 10.6533C50.0751 12.4667 49.7164 14.08 48.999 15.4933C48.2905 16.8978 47.272 18 45.9436 18.8C44.6151 19.6 43.0254 20 41.1744 20Z" fill="#101010"/>
<path d="M60.8336 20C58.9206 20 57.2821 19.5822 55.9183 18.7467C54.5544 17.9022 53.5049 16.7289 52.7698 15.2267C52.0436 13.7244 51.6805 11.9822 51.6805 10C51.6805 8.01778 52.0436 6.27556 52.7698 4.77333C53.5049 3.27111 54.5544 2.10222 55.9183 1.26667C57.2821 0.422222 58.9206 0 60.8336 0C62.7466 0 64.385 0.422222 65.7489 1.26667C67.1217 2.10222 68.1711 3.27111 68.8974 4.77333C69.6325 6.27556 70 8.01778 70 10C70 11.9822 69.6325 13.7244 68.8974 15.2267C68.1711 16.7289 67.1217 17.9022 65.7489 18.7467C64.385 19.5822 62.7466 20 60.8336 20ZM60.8336 16.9733C62.1178 16.9822 63.185 16.6978 64.0352 16.12C64.8943 15.5422 65.5364 14.7289 65.9615 13.68C66.3954 12.6311 66.6124 11.4044 66.6124 10C66.6124 8.59556 66.3954 7.37778 65.9615 6.34667C65.5364 5.30667 64.8943 4.49778 64.0352 3.92C63.185 3.34222 62.1178 3.04444 60.8336 3.02667C59.5494 3.01778 58.4822 3.30222 57.632 3.88C56.7818 4.45778 56.1397 5.27111 55.7057 6.32C55.2806 7.36889 55.068 8.59556 55.068 10C55.068 11.4044 55.2806 12.6267 55.7057 13.6667C56.1308 14.6978 56.7685 15.5022 57.6187 16.08C58.4778 16.6578 59.5494 16.9556 60.8336 16.9733Z" fill="#101010"/>
</svg>
