<svg width="104" height="24" viewBox="0 0 104 24" fill="none" xmlns="http://www.w3.org/2000/svg">
<path d="M9.24648 16.489C7.22292 16.489 5.50923 15.7874 4.10542 14.3841C2.70181 12.9807 2 11.2675 2 9.24448C2 7.22148 2.70181 5.50827 4.10542 4.10484C5.50923 2.70161 7.22292 2 9.24648 2C11.27 2 12.9837 2.70161 14.3875 4.10484C15.7912 5.50827 16.493 7.22148 16.493 9.24448C16.493 10.0905 16.351 10.8986 16.067 11.6686C15.7828 12.4386 15.4037 13.1083 14.9297 13.6778L21.7481 20.4943C21.9122 20.6582 21.9961 20.8643 21.9999 21.1127C22.0036 21.3611 21.9197 21.5711 21.7481 21.7426C21.5764 21.9142 21.3683 22 21.1236 22C20.8791 22 20.671 21.9142 20.4994 21.7426L13.681 14.9261C13.0885 15.4152 12.4071 15.7979 11.6369 16.0743C10.8666 16.3508 10.0698 16.489 9.24648 16.489ZM9.24648 14.7123C10.7733 14.7123 12.0665 14.1825 13.1261 13.1231C14.1859 12.0638 14.7158 10.7709 14.7158 9.24448C14.7158 7.71805 14.1859 6.42519 13.1261 5.36591C12.0665 4.30643 10.7733 3.77669 9.24648 3.77669C7.71963 3.77669 6.42641 4.30643 5.36684 5.36591C4.30707 6.42519 3.77718 7.71805 3.77718 9.24448C3.77718 10.7709 4.30707 12.0638 5.36684 13.1231C6.42641 14.1825 7.71963 14.7123 9.24648 14.7123Z" fill="#101010" fill-opacity="0.7"/>
<path fill-rule="evenodd" clip-rule="evenodd" d="M62 8.06253C62 15.0874 52.0004 21 52.0004 21C52.0004 21 42 15 42 8.07677C42 5.25003 44.2222 3.00003 47 3.00003C49.7778 3.00003 52 6.37503 52 6.37503C52 6.37503 54.2222 3.00003 57 3.00003C59.7778 3.00003 62 5.25003 62 8.06253Z" stroke="#101010" stroke-opacity="0.7" stroke-width="1.5" stroke-linecap="round" stroke-linejoin="round"/>
<path fill-rule="evenodd" clip-rule="evenodd" d="M96.6614 6.7619C96.6614 9.39183 94.5744 11.5238 91.9999 11.5238C89.4255 11.5238 87.3385 9.39183 87.3385 6.7619C87.3385 4.13198 89.4255 2 91.9999 2C94.5744 2 96.6614 4.13198 96.6614 6.7619ZM95.2629 6.7619C95.2629 8.60285 93.802 10.0952 91.9999 10.0952C90.1978 10.0952 88.737 8.60285 88.737 6.7619C88.737 4.92096 90.1978 3.42857 91.9999 3.42857C93.802 3.42857 95.2629 4.92096 95.2629 6.7619Z" fill="#101010" fill-opacity="0.7"/>
<path fill-rule="evenodd" clip-rule="evenodd" d="M100.94 19.9367C101.242 21.0197 100.367 22 99.2648 22H84.7352C83.6329 22 82.7584 21.0197 83.0603 19.9367C84.2662 15.6102 87.8127 12.4762 92 12.4762C96.1873 12.4762 99.7338 15.6102 100.94 19.9367ZM84.4052 20.3279C85.4706 16.5056 88.5426 13.9048 92 13.9048C95.4574 13.9048 98.5294 16.5056 99.5948 20.3279C99.6047 20.3636 99.6013 20.3796 99.5998 20.386C99.5974 20.396 99.59 20.4174 99.5663 20.4457C99.5153 20.5066 99.4104 20.5714 99.2648 20.5714H84.7352C84.5896 20.5714 84.4847 20.5066 84.4337 20.4457C84.41 20.4174 84.4026 20.396 84.4002 20.386C84.3987 20.3796 84.3953 20.3636 84.4052 20.3279Z" fill="#101010" fill-opacity="0.7"/>
</svg>
