<svg width="24" height="24" viewBox="0 0 24 24" fill="none" xmlns="http://www.w3.org/2000/svg">
<path d="M9.24648 16.489C7.22292 16.489 5.50923 15.7874 4.10542 14.3841C2.70181 12.9807 2 11.2675 2 9.24448C2 7.22148 2.70181 5.50827 4.10542 4.10484C5.50923 2.70161 7.22292 2 9.24648 2C11.27 2 12.9837 2.70161 14.3875 4.10484C15.7912 5.50827 16.493 7.22148 16.493 9.24448C16.493 10.0905 16.351 10.8986 16.067 11.6686C15.7828 12.4386 15.4037 13.1083 14.9297 13.6778L21.7481 20.4943C21.9122 20.6582 21.9961 20.8643 21.9999 21.1127C22.0036 21.3611 21.9197 21.5711 21.7481 21.7426C21.5764 21.9142 21.3683 22 21.1236 22C20.8791 22 20.671 21.9142 20.4994 21.7426L13.681 14.9261C13.0885 15.4152 12.4071 15.7979 11.6369 16.0743C10.8666 16.3508 10.0698 16.489 9.24648 16.489ZM9.24648 14.7123C10.7733 14.7123 12.0665 14.1825 13.1261 13.1231C14.1859 12.0638 14.7158 10.7709 14.7158 9.24448C14.7158 7.71805 14.1859 6.42519 13.1261 5.36591C12.0665 4.30643 10.7733 3.77669 9.24648 3.77669C7.71963 3.77669 6.42641 4.30643 5.36684 5.36591C4.30707 6.42519 3.77718 7.71805 3.77718 9.24448C3.77718 10.7709 4.30707 12.0638 5.36684 13.1231C6.42641 14.1825 7.71963 14.7123 9.24648 14.7123Z" fill="#101010" fill-opacity="0.7"/>
</svg>
