<svg width="18" height="20" viewBox="0 0 18 20" fill="none" xmlns="http://www.w3.org/2000/svg">
<path fill-rule="evenodd" clip-rule="evenodd" d="M13.6614 4.7619C13.6614 7.39183 11.5744 9.52381 8.99994 9.52381C6.42552 9.52381 4.33853 7.39183 4.33853 4.7619C4.33853 2.13198 6.42552 0 8.99994 0C11.5744 0 13.6614 2.13198 13.6614 4.7619ZM12.2629 4.7619C12.2629 6.60285 10.802 8.09524 8.99994 8.09524C7.19784 8.09524 5.73695 6.60285 5.73695 4.7619C5.73695 2.92096 7.19784 1.42857 8.99994 1.42857C10.802 1.42857 12.2629 2.92096 12.2629 4.7619Z" fill="#101010" fill-opacity="0.7"/>
<path fill-rule="evenodd" clip-rule="evenodd" d="M17.9397 17.9367C18.2416 19.0197 17.3671 20 16.2648 20H1.73517C0.632886 20 -0.241584 19.0197 0.0602712 17.9367C1.26616 13.6102 4.81266 10.4762 9 10.4762C13.1873 10.4762 16.7338 13.6102 17.9397 17.9367ZM1.40524 18.3279C2.47062 14.5056 5.54257 11.9048 9 11.9048C12.4574 11.9048 15.5294 14.5056 16.5948 18.3279C16.6047 18.3636 16.6013 18.3796 16.5998 18.386C16.5974 18.396 16.59 18.4174 16.5663 18.4457C16.5153 18.5066 16.4104 18.5714 16.2648 18.5714H1.73517C1.58959 18.5714 1.48469 18.5066 1.4337 18.4457C1.41 18.4174 1.40255 18.396 1.40022 18.386C1.39873 18.3796 1.39531 18.3636 1.40524 18.3279Z" fill="#101010" fill-opacity="0.7"/>
</svg>
